<svg width="303" height="353" viewBox="0 0 303 353" fill="none" xmlns="http://www.w3.org/2000/svg">
<g clip-path="url(#clip0_2_2)">
<path d="M151.5 0C180.772 0 206.805 7.15872 229.597 21.4756C252.389 35.7924 270.321 56.1494 283.393 82.5459C296.464 108.943 303 140.261 303 176.5C303 212.739 296.464 244.057 283.393 270.454C270.321 296.851 252.389 317.208 229.597 331.524C206.805 345.841 180.772 353 151.5 353C122.228 353 96.1954 345.841 73.4033 331.524C50.6115 317.208 32.6792 296.851 19.6074 270.454C6.53566 244.057 0 212.739 0 176.5C0 140.261 6.53564 108.943 19.6074 82.5459C32.6792 56.1494 50.6115 35.7924 73.4033 21.4756C96.1954 7.15872 122.228 0 151.5 0ZM44.9199 130.554C41.7872 144.39 40.2217 159.706 40.2217 176.5C40.2217 206.252 45.137 231.362 54.9688 251.831C64.9123 272.3 78.2638 287.791 95.0225 298.305C111.893 308.819 130.719 314.076 151.5 314.076C172.281 314.076 191.051 308.819 207.81 298.305C214.361 294.222 220.38 289.388 225.87 283.805C231.917 275.047 234.941 265.006 234.941 253.683C234.941 242.304 231.762 233.045 225.403 225.905C219.045 218.766 210.678 212.964 200.303 208.502C189.928 204.04 178.716 200.135 166.668 196.788L124.499 184.74C97.7251 177.043 76.5283 166.054 60.9102 151.774C54.092 145.541 48.7615 138.467 44.9199 130.554ZM151.5 38.9238C137.662 38.9238 124.69 41.2556 112.586 45.918C101.753 50.7214 93.2014 56.0686 87.0156 64.4248C80.7684 73.0148 77.6445 82.7763 77.6445 93.709C77.6446 102.857 79.8202 110.722 84.1709 117.304C88.6332 123.774 94.3228 129.184 101.239 133.535C108.156 137.774 115.407 141.288 122.993 144.077C130.579 146.754 137.551 148.93 143.91 150.604L178.716 159.975C187.64 162.317 197.569 165.552 208.502 169.68C219.546 173.807 230.089 179.441 240.129 186.581C248.14 192.127 255.037 198.924 260.825 206.971C262.127 197.421 262.778 187.265 262.778 176.5C262.778 146.748 257.807 121.638 247.863 101.169C238.031 80.7003 224.68 65.2093 207.81 54.6953C191.051 44.1814 172.281 38.9238 151.5 38.9238Z" fill="white"/>
</g>
<defs>
<clipPath id="clip0_2_2">
<rect width="303" height="353" fill="white"/>
</clipPath>
</defs>
</svg>
