<svg xmlns="http://www.w3.org/2000/svg" width="303" height="353" fill="none"><path fill="url(#a)" d="M151.5 0c29.272 0 55.305 7.15872 78.097 21.4756 22.792 14.3168 40.724 34.6738 53.796 61.0703C296.464 108.943 303 140.261 303 176.5s-6.536 67.557-19.607 93.954c-13.072 26.397-31.004 46.754-53.796 61.07C206.805 345.841 180.772 353 151.5 353c-29.272 0-55.3046-7.159-78.0967-21.476-22.7918-14.316-40.7241-34.673-53.7959-61.07C6.53566 244.057 0 212.739 0 176.5c0-36.239 6.53564-67.557 19.6074-93.9541 13.0718-26.3965 31.0041-46.7535 53.7959-61.0703C96.1954 7.15872 122.228 0 151.5 0ZM44.9199 130.554c-3.1327 13.836-4.6982 29.152-4.6982 45.946 0 29.752 4.9153 54.862 14.7471 75.331 9.9435 20.469 23.295 35.96 40.0537 46.474 16.8705 10.514 35.6965 15.771 56.4775 15.771s39.551-5.257 56.31-15.771c6.551-4.083 12.57-8.917 18.06-14.5 6.047-8.758 9.071-18.799 9.071-30.122 0-11.379-3.179-20.638-9.538-27.778-6.358-7.139-14.725-12.941-25.1-17.403-10.375-4.462-21.587-8.367-33.635-11.714l-42.169-12.048c-26.7739-7.697-47.9707-18.686-63.5888-32.966-6.8182-6.233-12.1487-13.307-15.9903-21.22ZM151.5 38.9238c-13.838 0-26.81 2.3318-38.914 6.9942-10.833 4.8034-19.3846 10.1506-25.5704 18.5068-6.2472 8.59-9.3711 18.3515-9.3711 29.2842.0001 9.148 2.1757 17.013 6.5264 23.595 4.4623 6.47 10.1519 11.88 17.0681 16.231 6.917 4.239 14.168 7.753 21.754 10.542 7.586 2.677 14.558 4.853 20.917 6.527l34.806 9.371c8.924 2.342 18.853 5.577 29.786 9.705 11.044 4.127 21.587 9.761 31.627 16.901 8.011 5.546 14.908 12.343 20.696 20.39 1.302-9.55 1.953-19.706 1.953-30.471 0-29.752-4.971-54.862-14.915-75.331-9.832-20.4687-23.183-35.9597-40.053-46.4737-16.759-10.5139-35.529-15.7715-56.31-15.7715Z"/><defs><linearGradient id="a" x1="370.035" x2="100.169" y1="-123.684" y2="378.842" gradientUnits="userSpaceOnUse"><stop stop-color="#2F00FF"/><stop offset="1" stop-color="#0DF"/></linearGradient></defs></svg>